<?xml version="1.0" standalone="no"?>
<!DOCTYPE svg PUBLIC "-//W3C//DTD SVG 20010904//EN"
 "http://www.w3.org/TR/2001/REC-SVG-20010904/DTD/svg10.dtd">
<svg version="1.0" xmlns="http://www.w3.org/2000/svg"
 width="2000.000000pt" height="2000.000000pt" viewBox="0 0 2000.000000 2000.000000"
 preserveAspectRatio="xMidYMid meet">
<metadata>
Created by potrace 1.11, written by Peter Selinger 2001-2013
</metadata>
<g transform="translate(0.000000,2000.000000) scale(0.100000,-0.100000)"
fill="#000000" stroke="none">
<path d="M6748 16025 c-2 -1 -39 -5 -83 -8 -284 -21 -482 -130 -459 -253 9
-49 48 -67 142 -67 51 0 77 4 82 13 16 26 -9 48 -65 61 -31 7 -55 18 -55 25 0
17 66 37 160 49 25 3 63 7 85 10 112 14 341 2 485 -25 214 -41 593 -162 765
-245 400 -193 708 -454 844 -715 62 -118 85 -208 85 -325 1 -92 -2 -105 -31
-166 -38 -77 -103 -146 -193 -204 -85 -55 -231 -113 -325 -129 -16 -3 -64 -12
-105 -20 -131 -25 -513 -14 -545 16 -6 5 -10 130 -11 330 l0 320 115 -6 c64
-3 127 -8 141 -10 14 -3 44 -7 67 -10 165 -21 322 -83 331 -129 6 -28 -22 -61
-67 -82 -22 -11 -41 -26 -41 -33 0 -36 121 -43 188 -11 64 32 97 86 99 168 3
111 -47 177 -182 242 -137 66 -356 108 -582 113 -34 1 -65 4 -68 8 -4 4 -9 33
-10 65 -2 32 -6 79 -9 106 -3 26 -8 67 -11 92 -8 64 -40 163 -61 186 -9 10
-28 19 -41 19 -55 0 -82 -108 -99 -395 -3 -55 -7 -102 -10 -106 -2 -3 -25 -9
-51 -13 -73 -9 -275 -62 -351 -92 -200 -77 -295 -163 -286 -260 12 -147 200
-324 592 -558 55 -33 62 -41 62 -69 0 -18 7 -58 14 -91 19 -79 56 -117 123
-123 43 -5 52 -2 80 24 25 23 33 42 39 80 l6 50 72 -19 c73 -19 83 -21 196
-37 66 -10 384 -7 452 4 21 3 81 17 134 31 384 99 614 368 629 735 5 126 -29
275 -87 377 -10 17 -28 49 -39 70 -101 177 -360 415 -641 585 -271 164 -648
315 -933 373 -43 9 -193 33 -245 40 -53 6 -296 14 -302 9z m526 -1621 c0 -156
-3 -286 -5 -289 -6 -5 -55 8 -94 25 -256 113 -427 234 -482 345 -23 45 -22 68
3 96 32 36 191 81 336 95 35 3 64 7 65 8 1 1 42 2 90 3 l88 1 -1 -284z"/>
<path d="M9370 15820 c-127 -33 -283 -121 -370 -210 -117 -120 -143 -266 -65
-375 15 -21 19 -39 15 -60 -17 -94 35 -163 111 -146 3 0 14 19 25 40 l19 39
30 -16 c41 -21 170 -28 237 -12 230 55 460 277 484 467 12 100 -41 169 -135
175 -22 2 -41 6 -41 10 0 17 -56 70 -89 84 -52 22 -146 24 -221 4z m-80 -218
c-51 -36 -175 -167 -220 -234 -18 -28 -28 -34 -37 -26 -20 16 -16 49 13 106
41 83 166 173 238 171 l31 0 -25 -17z m396 -41 c41 -81 -57 -204 -224 -283
-51 -25 -78 -31 -152 -34 -95 -3 -120 1 -120 20 0 22 97 131 166 188 166 134
296 178 330 109z"/>
<path d="M13103 15281 c-43 -20 -63 -45 -63 -80 0 -41 16 -47 208 -87 34 -7
27 -38 -15 -73 -21 -17 -41 -31 -45 -31 -4 0 -19 -5 -35 -11 -37 -14 -13 -29
36 -22 111 18 180 86 176 173 -5 118 -141 185 -262 131z"/>
<path d="M10950 15050 c0 -11 12 -59 26 -107 25 -84 62 -225 70 -268 2 -11 6
-31 9 -45 23 -106 30 -167 29 -253 -1 -43 -5 -82 -10 -87 -5 -5 -72 89 -166
233 -86 133 -173 261 -193 285 -96 111 -182 0 -229 -295 -23 -144 -25 -163
-32 -340 -6 -132 -5 -156 10 -177 38 -59 131 -68 164 -15 8 13 15 67 17 147 4
119 15 343 18 386 4 45 27 18 112 -131 126 -220 199 -328 238 -352 71 -44 130
-34 179 31 120 158 138 431 41 648 -60 136 -122 244 -180 318 -29 35 -40 42
-69 42 -27 0 -34 -4 -34 -20z"/>
<path d="M9979 14936 c-2 -2 -38 -6 -79 -9 -156 -12 -323 -74 -396 -146 -67
-66 -87 -154 -52 -228 39 -83 94 -98 421 -108 76 -2 141 -6 145 -9 4 -2 24 -7
45 -10 85 -14 167 -71 167 -117 0 -27 -37 -57 -115 -95 -83 -40 -102 -44 -265
-49 -184 -6 -261 16 -268 78 -8 63 64 84 158 47 148 -59 256 -68 333 -31 108
52 40 107 -182 146 -152 27 -292 1 -363 -65 -33 -32 -38 -43 -38 -80 0 -126
126 -233 320 -274 100 -21 293 -15 371 11 69 24 130 72 173 137 53 80 66 152
41 227 -44 130 -174 200 -400 214 -55 3 -118 8 -140 10 -153 17 -156 17 -206
36 -19 8 -25 16 -22 29 5 20 41 35 103 45 19 3 46 7 60 10 14 3 52 8 85 11 33
3 74 7 90 9 17 2 91 6 165 9 162 7 183 11 237 42 46 27 66 54 57 78 -8 21 -79
54 -144 66 -53 10 -294 23 -301 16z"/>
<path d="M12428 14871 c-80 -84 -118 -138 -169 -241 -64 -128 -109 -278 -109
-363 0 -54 20 -111 52 -147 25 -28 25 -28 7 -65 -27 -55 -92 -227 -128 -335
-45 -139 -72 -263 -78 -361 -5 -78 -3 -92 19 -140 31 -67 81 -117 126 -125 44
-9 61 9 69 72 10 90 100 437 169 659 l25 80 75 -2 c90 -2 190 23 289 75 90 47
217 172 263 259 135 255 68 602 -117 609 -55 2 -83 -11 -176 -82 -113 -86
-259 -247 -379 -416 -49 -70 -62 -79 -73 -52 -15 39 88 279 184 428 57 86 69
125 59 181 -10 52 -34 45 -108 -34z m550 -242 c18 -34 10 -134 -16 -191 -48
-104 -128 -187 -236 -244 -71 -38 -164 -53 -173 -28 -8 23 198 311 308 431 62
67 93 76 117 32z"/>
<path d="M13770 14924 c-107 -14 -212 -44 -281 -81 -132 -69 -190 -192 -137
-293 37 -72 106 -96 286 -99 319 -7 439 -36 481 -115 13 -24 13 -29 -5 -54
-21 -28 -144 -96 -179 -99 -11 -1 -42 -6 -70 -12 -71 -14 -293 -7 -330 10 -63
29 -76 68 -35 109 28 28 63 25 183 -15 119 -40 182 -47 250 -30 95 24 112 73
38 110 -38 20 -72 30 -171 51 -55 11 -183 11 -233 0 -158 -37 -215 -122 -158
-235 76 -149 332 -230 596 -189 124 19 218 86 270 191 31 64 37 108 23 167
-35 145 -165 221 -403 235 -55 3 -116 8 -135 10 -19 2 -64 7 -99 10 -63 6
-141 31 -141 44 1 28 41 46 133 61 124 19 219 28 382 35 141 6 187 15 240 47
96 56 46 113 -125 144 -66 12 -285 11 -380 -2z"/>
<path d="M9202 14896 c-22 -25 -31 -46 -38 -95 -3 -20 -7 -41 -9 -47 -10 -31
-20 -275 -20 -502 l0 -254 29 -23 c37 -29 83 -38 124 -24 48 17 56 54 48 233
-4 83 -9 250 -11 371 -3 121 -8 239 -11 263 -10 74 -75 120 -112 78z"/>
<path d="M11837 14904 c-1 -1 -38 -5 -82 -8 -168 -15 -289 -33 -330 -50 -46
-19 -47 -54 -5 -90 30 -25 96 -49 110 -41 4 3 13 -1 18 -8 8 -9 2 -34 -23 -92
-35 -79 -47 -95 -76 -95 -28 0 -68 -45 -62 -69 3 -12 9 -21 13 -21 24 0 16
-48 -25 -158 -26 -71 -45 -138 -45 -162 0 -51 26 -103 82 -163 73 -77 124 -87
261 -50 99 26 223 80 275 119 36 28 62 77 62 116 0 13 -11 36 -24 53 -21 27
-29 30 -77 28 -30 0 -106 -13 -169 -28 -165 -38 -180 -40 -180 -25 0 16 69
191 82 208 8 8 52 12 159 12 136 0 151 2 169 20 23 23 24 31 10 81 -12 44 -24
47 -165 47 -55 0 -107 1 -117 1 -15 1 -14 7 4 69 11 37 26 72 34 78 9 7 69 10
178 7 184 -4 230 5 241 50 13 49 -51 145 -112 168 -21 8 -197 11 -206 3z"/>
<path d="M4789 12928 c-1 -7 -3 -29 -4 -48 -4 -44 -16 -331 -20 -470 -2 -58
-6 -121 -9 -140 -4 -29 1 -43 30 -82 19 -27 40 -48 47 -48 6 -1 24 -18 39 -40
l27 -39 224 6 c254 5 245 8 226 -75 -6 -26 -13 -65 -15 -87 -3 -22 -7 -51 -10
-65 -3 -14 -7 -170 -9 -348 -3 -339 -7 -403 -30 -542 -22 -130 -25 -179 -30
-530 -7 -454 -14 -525 -66 -657 -16 -39 -31 -100 -35 -135 -4 -35 -13 -83 -20
-108 -28 -93 -20 -115 89 -225 46 -46 60 -56 67 -44 8 12 68 14 377 14 318 0
654 -9 773 -20 19 -2 91 -6 160 -10 69 -4 145 -8 170 -10 25 -2 97 -6 160 -10
63 -4 131 -8 150 -10 116 -12 290 -17 640 -20 217 -2 431 -6 475 -9 86 -6 183
-12 390 -23 164 -8 661 -10 669 -2 11 11 23 193 31 469 2 74 7 148 10 165 6
27 9 87 6 127 -1 9 -35 51 -76 95 l-76 78 -62 1 c-34 1 -172 5 -307 10 -285 9
-370 8 -484 -5 -5 -1 -6 -61 -2 -142 l6 -141 -432 7 c-238 4 -496 8 -573 10
-181 4 -911 17 -993 17 l-62 0 6 101 c8 152 20 289 31 352 3 17 6 44 8 60 3
32 5 49 35 210 10 55 21 120 25 145 3 25 8 56 10 70 3 14 7 48 10 75 13 133
16 163 20 205 10 88 15 146 20 220 3 41 7 98 10 125 2 28 7 93 10 145 3 52 8
115 10 140 3 25 7 81 10 125 3 44 8 100 10 125 3 25 7 70 10 100 8 86 15 152
20 185 16 102 20 169 20 325 l0 175 -33 50 c-18 28 -35 49 -37 48 -15 -8 -27
1 -47 36 l-22 39 -186 1 c-102 1 -228 4 -280 6 -52 2 -178 6 -280 10 -102 3
-221 8 -265 10 -370 15 -565 16 -566 3z"/>
<path d="M8569 12879 c-5 -11 -8 -19 -5 -19 3 0 -1 -21 -9 -47 -59 -201 -78
-311 -79 -443 -1 -67 2 -80 30 -125 17 -27 38 -49 45 -48 8 2 26 -16 40 -39
l25 -43 65 0 64 -1 -1 -64 c-1 -62 -12 -312 -19 -430 -2 -30 -6 -113 -10 -185
-3 -71 -8 -155 -10 -185 -2 -30 -7 -109 -10 -175 -3 -66 -8 -153 -11 -194 -2
-41 -7 -129 -10 -195 -8 -169 -13 -258 -15 -276 -1 -8 -1 -33 -1 -56 2 -36 10
-49 82 -123 l81 -82 102 25 c56 14 125 28 152 31 28 4 57 8 65 10 8 2 31 7 50
10 151 24 239 46 266 65 19 13 23 29 28 110 4 52 9 120 11 150 2 30 7 93 10
140 3 47 10 112 15 145 5 33 12 98 15 145 4 47 9 94 11 105 2 11 6 49 9 85 3
36 7 83 9 105 6 59 18 269 31 555 3 63 7 140 10 170 2 30 7 93 10 139 4 47 8
92 10 102 2 10 6 42 9 71 4 29 10 78 15 109 5 31 8 98 6 148 -3 94 -21 141
-74 198 -12 12 -21 27 -21 34 0 6 -7 9 -15 5 -8 -3 -15 -2 -15 2 0 4 -14 23
-32 42 l-31 35 -286 2 c-157 1 -357 4 -444 6 -146 4 -158 3 -168 -14z"/>
<path d="M7233 12680 c-157 -54 -233 -103 -300 -193 -60 -83 -67 -103 -52
-152 20 -66 54 -116 126 -187 59 -57 78 -70 143 -91 125 -42 161 -49 245 -49
98 1 185 19 335 71 184 63 231 82 310 133 108 67 131 116 95 193 -25 54 -43
77 -133 169 -79 81 -142 119 -214 130 -20 3 -122 8 -225 12 -103 3 -190 6
-193 8 -3 1 -64 -19 -137 -44z"/>
<path d="M11228 12665 c-2 -1 -52 -5 -113 -9 -60 -3 -121 -8 -135 -10 -14 -3
-50 -7 -80 -10 -30 -4 -66 -8 -80 -11 -14 -3 -41 -8 -60 -11 -19 -3 -42 -7
-50 -9 -8 -2 -31 -7 -50 -10 -129 -22 -399 -90 -483 -122 -154 -57 -267 -172
-280 -283 -4 -36 -24 -72 -51 -92 -5 -3 -8 -28 -6 -55 5 -86 4 -137 -5 -193
-4 -30 -9 -192 -10 -360 -2 -318 -5 -362 -39 -560 -14 -85 -15 -296 -1 -355 4
-16 8 -34 9 -40 24 -100 74 -209 124 -269 20 -25 53 -70 72 -101 50 -80 239
-261 331 -317 156 -94 322 -141 574 -164 44 -3 96 -8 115 -10 53 -5 391 -5
425 0 17 3 53 7 80 10 333 36 605 153 759 328 59 67 122 194 141 287 11 50 16
157 19 359 2 158 7 298 9 312 19 92 28 566 14 700 -7 61 -29 189 -41 235 -1 6
-13 55 -25 110 -12 55 -30 114 -39 130 -33 62 -127 180 -204 256 -147 145
-253 197 -478 233 -25 4 -54 9 -65 11 -67 10 -369 26 -377 20z m390 -664 l66
-27 2 -255 c2 -140 4 -409 6 -599 3 -355 0 -406 -28 -500 -57 -192 -169 -249
-517 -264 -56 -2 -224 18 -235 28 -3 4 -10 250 -17 691 -5 308 -7 349 -20 460
-19 151 -12 277 17 349 16 39 161 132 225 144 26 5 135 7 241 5 182 -5 198 -7
260 -32z"/>
<path d="M12968 11907 c-99 -28 -170 -117 -258 -321 -15 -35 -17 -52 -10 -78
13 -44 74 -141 128 -206 l45 -53 -29 -30 c-16 -17 -57 -47 -92 -66 -86 -48
-167 -152 -237 -301 l-29 -63 23 -112 c59 -286 168 -484 382 -694 104 -102
110 -107 190 -131 244 -76 301 -91 359 -96 l66 -6 132 93 c72 51 142 108 154
127 60 89 178 280 201 325 14 28 39 70 55 94 36 53 32 75 -28 155 -69 91 -51
105 128 100 112 -3 119 0 200 84 55 58 57 64 53 167 -2 67 -52 142 -174 263
l-93 93 -24 -26 c-15 -16 -34 -25 -53 -25 -42 0 -112 -72 -97 -100 5 -10 10
-29 10 -42 0 -13 4 -28 9 -33 5 -6 19 -27 30 -48 l21 -38 -27 -23 c-25 -22
-30 -23 -64 -11 -20 7 -50 20 -67 29 -42 22 -136 31 -303 30 -166 -2 -177 -5
-299 -89 -41 -28 -117 -75 -168 -104 l-93 -53 7 -36 c4 -21 16 -59 27 -87 11
-27 32 -93 47 -146 30 -103 76 -189 100 -189 8 0 26 -18 40 -41 30 -48 34 -48
179 7 51 19 95 33 98 31 2 -2 -25 -32 -59 -66 -59 -58 -157 -119 -175 -108 -4
3 -44 8 -88 12 -97 8 -118 12 -172 36 -38 17 -44 25 -72 99 -17 43 -31 84 -31
89 0 5 -16 33 -36 62 -60 90 -77 202 -44 309 5 19 10 47 10 63 0 30 60 97 86
97 9 0 41 12 72 26 92 42 292 129 357 154 89 34 89 34 57 115 -21 54 -43 85
-99 144 -40 41 -73 78 -73 82 0 13 -88 -6 -146 -32 l-42 -18 -7 49 c-13 98 57
238 135 270 36 15 59 0 142 -89 31 -33 59 -57 62 -54 3 4 6 19 6 33 0 22 6 29
29 33 45 9 61 31 51 68 -11 36 -74 132 -108 163 -40 36 -72 71 -72 77 0 35
-234 61 -322 36z m689 -1315 c18 -52 16 -141 -5 -178 -19 -36 -71 -98 -76 -93
-2 2 -9 28 -15 58 -11 52 -67 145 -81 136 -4 -3 -20 11 -35 31 -27 35 -27 37
-9 48 19 11 195 45 203 39 3 -2 11 -20 18 -41z"/>
<path d="M7138 11693 c-13 -16 -2 -958 12 -1016 8 -36 5 -228 -4 -272 -3 -11
-5 -26 -5 -32 -1 -10 -30 -12 -113 -9 -62 2 -131 1 -154 -1 l-41 -5 3 -46 c5
-75 14 -113 41 -176 27 -65 69 -126 87 -126 6 0 24 -18 39 -40 l28 -40 407 4
c402 5 447 7 464 24 5 5 11 126 13 268 5 282 11 492 22 679 4 66 5 156 3 200
-7 178 2 382 18 410 8 15 3 28 -22 62 -17 23 -38 45 -46 48 -8 3 -28 22 -43
43 l-28 36 -335 1 c-256 0 -338 -3 -346 -12z"/>
<path d="M19278 9735 c-2 -1 -43 -5 -93 -8 -99 -7 -274 -47 -580 -132 -214
-60 -323 -82 -442 -90 -148 -11 -166 -35 -156 -214 10 -190 4 -455 -11 -551
-3 -14 -7 -56 -11 -95 -3 -38 -8 -83 -10 -100 -4 -28 -9 -71 -20 -172 -3 -24
-7 -62 -10 -85 -14 -134 -18 -199 -19 -348 -1 -96 4 -205 12 -260 20 -140 18
-245 -6 -305 -13 -33 -26 -51 -38 -52 -101 -8 -298 -17 -374 -16 -223 1 -420
7 -421 13 -2 18 -8 186 -14 375 -3 121 -7 243 -9 270 -3 28 -7 91 -11 140 -3
50 -8 97 -10 105 -3 8 -7 76 -10 150 -8 229 -9 233 -56 295 -23 30 -47 55 -54
55 -7 0 -24 18 -39 41 l-27 40 -197 -5 c-108 -3 -260 -8 -337 -11 -224 -8
-387 -14 -575 -21 -96 -3 -215 -7 -265 -9 -49 -2 -125 -4 -167 -4 l-78 -1 0
-32 c0 -18 7 -58 15 -88 26 -95 28 -160 10 -234 -16 -63 -16 -175 1 -260 6
-34 93 -156 111 -156 5 0 22 -18 39 -40 l29 -40 70 6 c39 3 84 8 100 9 17 2
52 5 79 6 l50 3 2 -64 c4 -124 15 -426 19 -525 3 -55 7 -172 10 -260 9 -293
16 -469 21 -575 5 -91 5 -265 1 -1012 -1 -153 2 -161 82 -301 26 -45 54 -83
67 -87 12 -5 32 -25 44 -45 15 -24 32 -38 54 -43 35 -7 37 -7 121 2 33 3 85 9
115 12 30 3 66 8 80 10 30 5 236 14 420 18 119 3 237 21 268 40 15 9 3 391
-22 721 -4 44 -8 94 -10 110 -2 17 -7 64 -11 105 -4 41 -9 82 -10 91 -2 9 -6
40 -10 70 -4 30 -16 99 -26 154 -10 55 -19 103 -19 106 0 4 28 10 63 13 34 4
76 9 92 11 160 21 236 23 360 12 39 -3 117 -9 175 -13 93 -5 226 -37 249 -60
3 -3 11 -34 17 -69 14 -87 9 -286 -12 -420 -25 -165 -28 -231 -13 -283 8 -26
14 -49 14 -52 1 -3 9 -32 19 -64 20 -68 26 -230 11 -321 -18 -116 -10 -410 14
-493 12 -39 100 -161 118 -162 6 0 24 -18 40 -39 27 -39 30 -40 138 -60 61
-12 146 -26 190 -31 44 -6 89 -12 101 -14 11 -2 54 -7 95 -11 41 -3 88 -8 104
-10 17 -3 62 -7 100 -10 39 -3 84 -8 100 -10 17 -2 62 -7 100 -10 39 -3 82 -8
98 -11 25 -4 27 -2 28 28 1 18 2 44 4 58 1 14 5 66 9 115 3 50 9 115 11 145 3
30 7 125 10 210 3 85 8 168 10 185 3 16 9 53 14 80 5 28 9 57 9 65 0 8 3 67 7
130 4 63 9 138 10 165 2 28 6 91 10 140 3 50 8 124 10 165 3 41 7 113 10 160
12 188 14 220 30 468 3 45 7 119 10 165 3 45 7 114 10 152 2 39 7 113 10 165
3 52 8 124 10 160 2 36 7 110 11 165 3 55 7 125 9 155 2 30 7 100 10 155 3 55
7 127 10 160 2 33 7 105 10 160 13 206 20 315 31 425 6 69 14 237 19 425 6
220 14 312 34 395 5 19 9 42 10 50 0 8 3 89 7 181 l7 165 -39 60 c-40 61 -54
75 -64 69 -4 -2 -17 14 -31 35 -13 22 -28 40 -34 40 -5 1 -18 3 -27 5 -9 2
-18 2 -20 0z"/>
<path d="M1768 9365 c-2 -2 -57 -5 -124 -9 -126 -6 -195 -17 -278 -43 -67 -21
-78 -28 -192 -116 -76 -59 -119 -101 -172 -172 -64 -83 -73 -103 -91 -177 -22
-91 -27 -123 -36 -219 -4 -35 -15 -107 -25 -159 -51 -265 -39 -518 36 -734 53
-154 133 -271 291 -428 l118 -118 185 -61 c225 -75 335 -113 645 -222 378
-132 952 -318 1106 -357 48 -12 108 -34 135 -49 41 -22 50 -33 62 -71 33 -114
63 -292 67 -400 2 -63 7 -133 10 -155 23 -142 27 -376 9 -490 -25 -157 -71
-275 -135 -343 -46 -49 -66 -59 -164 -82 -76 -18 -109 -20 -215 -15 -69 3
-136 8 -150 10 -14 2 -54 7 -88 10 -35 4 -79 13 -96 20 l-33 14 2 233 c2 128
6 249 11 268 4 19 8 60 8 90 1 49 -4 64 -39 118 -21 34 -46 62 -55 62 -9 0
-26 18 -39 40 -21 38 -24 40 -74 41 -29 1 -68 2 -87 4 -181 12 -502 19 -1015
21 -335 2 -626 3 -645 4 -19 1 -59 -7 -87 -16 -62 -21 -63 -23 -94 -184 -11
-55 -7 -266 6 -325 77 -359 268 -688 572 -987 59 -59 82 -73 168 -109 103 -42
287 -94 372 -104 26 -4 59 -8 73 -10 56 -9 152 -15 280 -20 175 -6 357 -16
395 -21 127 -16 158 -19 215 -18 60 1 179 8 290 18 25 3 81 7 125 11 44 4 94
8 110 10 17 2 64 7 105 10 41 4 82 8 90 10 8 1 47 6 85 10 88 8 392 51 505 70
47 8 103 17 125 20 70 11 267 45 350 61 94 19 133 40 367 196 189 127 279 212
326 306 30 62 60 187 69 292 10 112 9 376 -1 420 -4 19 -11 114 -15 210 -7
166 -9 181 -45 285 -20 61 -44 126 -53 145 -43 96 -98 207 -113 230 -9 14 -47
71 -84 128 -78 118 -244 297 -344 370 -78 58 -132 84 -222 107 -36 9 -126 36
-200 60 -130 41 -297 86 -520 139 -765 183 -988 249 -1208 360 l-68 34 -18
114 c-41 250 -46 297 -47 388 -4 295 143 403 551 404 l155 0 63 -34 c35 -18
67 -43 72 -54 14 -37 19 -96 35 -387 2 -36 11 -91 20 -122 9 -31 18 -99 20
-149 5 -143 21 -175 141 -294 61 -60 63 -61 126 -65 119 -7 883 -4 1123 5 132
4 281 10 330 11 50 2 105 3 123 4 l33 1 -6 168 c-3 92 -7 183 -9 202 -2 19 -7
76 -11 125 -4 50 -9 98 -11 109 -2 10 -6 44 -9 75 -20 178 -73 422 -118 542
-29 76 -73 166 -84 171 -5 1 -25 29 -46 61 -21 31 -51 67 -67 78 -15 12 -33
32 -41 45 -7 13 -33 34 -58 46 -25 12 -71 47 -102 78 -54 53 -106 84 -219 130
-64 26 -107 40 -135 45 -38 6 -130 16 -190 21 -33 2 -73 6 -90 9 -16 2 -66 6
-110 10 -44 3 -102 8 -130 10 -27 2 -102 7 -165 10 -63 4 -146 9 -185 11 -69
6 -1442 13 -1447 9z"/>
<path d="M10498 8705 c-1 -2 -17 -5 -35 -8 -52 -8 -56 -14 -49 -76 11 -102 17
-135 37 -209 24 -92 24 -109 -2 -117 -23 -8 -263 -7 -319 0 -69 10 -365 14
-385 6 -17 -7 -23 -25 -34 -97 -7 -49 -15 -98 -17 -109 -8 -37 -7 -192 1 -205
4 -6 9 -27 11 -45 4 -43 93 -185 116 -185 9 0 27 -18 39 -39 12 -22 29 -39 38
-39 9 0 54 -4 101 -8 100 -11 142 -10 315 0 147 9 165 9 172 2 3 -3 5 -29 5
-58 0 -29 9 -114 20 -188 16 -105 22 -189 23 -380 1 -135 7 -279 13 -320 6
-41 10 -93 7 -115 -6 -57 -17 -136 -21 -160 -3 -11 -7 -38 -10 -60 -2 -22 -12
-78 -20 -125 -8 -47 -17 -101 -20 -120 -6 -40 -21 -125 -28 -155 -2 -11 -14
-65 -25 -121 -12 -55 -24 -111 -27 -125 -3 -13 -7 -35 -10 -49 -3 -14 -11 -53
-19 -86 -16 -69 -21 -95 -30 -139 -3 -16 -8 -36 -10 -43 -5 -13 -53 -217 -60
-252 -2 -13 -13 -86 -21 -145 -2 -11 -3 -63 -4 -116 -1 -95 -1 -98 35 -153 20
-31 47 -61 60 -66 13 -5 26 -18 29 -28 11 -33 45 -56 89 -58 183 -10 503 -4
527 11 3 2 28 6 55 10 28 3 93 14 145 23 92 17 95 18 112 52 14 28 16 54 12
131 -2 53 -6 106 -9 118 -12 62 -3 123 45 311 28 113 54 216 56 230 3 14 9 41
14 60 5 19 12 55 15 80 4 25 10 65 15 90 8 45 6 286 -4 430 -11 160 -8 306 10
400 2 14 6 35 9 48 2 13 7 33 11 45 17 52 5 730 -13 759 -9 16 -4 159 8 197
10 34 17 41 38 42 14 1 49 3 76 5 56 3 184 3 790 1 231 -1 465 1 520 6 55 4
143 10 195 13 52 4 96 7 98 9 11 10 34 195 36 288 2 100 1 101 -33 151 -19 28
-65 81 -102 117 l-67 66 -64 2 c-34 1 -81 4 -103 6 -47 4 -386 12 -850 21
-181 3 -359 7 -395 9 -36 2 -79 4 -97 4 -31 1 -32 2 -26 39 3 20 11 48 18 62
17 35 4 81 -41 147 -22 31 -43 64 -49 74 -5 11 -17 19 -25 19 -17 0 -60 51
-60 70 0 5 -8 10 -17 11 -10 0 -124 2 -253 4 -302 5 -503 16 -547 30 -6 2 -13
2 -15 0z"/>
<path d="M6048 8437 c-55 -9 -58 -10 -53 -36 2 -14 9 -57 14 -96 6 -38 19
-101 30 -138 11 -38 17 -75 14 -83 -5 -13 -34 -15 -222 -10 -119 4 -322 9
-453 12 -266 6 -240 14 -253 -76 -4 -25 -9 -54 -12 -65 -12 -51 -10 -271 3
-303 22 -53 75 -131 95 -137 10 -3 28 -22 39 -41 12 -18 25 -34 28 -35 4 0 14
-2 22 -4 100 -24 174 -30 385 -29 195 1 422 11 437 20 10 6 17 -25 26 -116 8
-86 8 -191 -3 -635 -10 -450 -11 -467 -23 -497 -7 -16 -9 -28 -6 -28 4 0 2 -6
-4 -12 -5 -7 -13 -29 -17 -48 -7 -35 -92 -257 -105 -275 -6 -8 -31 -104 -46
-180 -2 -11 -33 -137 -69 -281 -61 -244 -78 -318 -91 -404 -3 -19 -7 -37 -7
-40 -4 -13 87 -141 98 -137 6 3 23 -14 38 -38 l27 -42 133 -2 c513 -7 820 -8
870 -2 48 6 64 13 92 42 30 30 35 42 41 104 8 83 8 155 -1 210 -5 30 -1 53 15
90 39 90 100 273 116 349 37 171 39 203 36 436 -9 614 -9 623 34 859 21 113
24 153 19 265 -5 131 -8 158 -21 199 -4 12 -6 42 -4 67 2 25 3 57 4 73 1 27 2
27 71 28 195 4 609 1 845 -5 292 -7 913 -8 1029 -1 114 6 192 15 202 21 5 3 9
20 9 38 0 19 7 51 16 71 20 48 42 163 38 198 -3 28 -102 176 -119 177 -13 0
-65 62 -65 78 0 7 -3 11 -8 8 -4 -2 -29 0 -55 5 -26 5 -69 11 -95 15 -26 3
-51 9 -57 12 -5 3 -135 7 -290 9 -154 1 -347 4 -430 7 -155 5 -578 15 -883 20
-95 2 -176 6 -179 10 -3 3 7 30 22 61 27 57 28 90 2 117 -6 7 -25 32 -41 56
-16 23 -35 42 -42 42 -8 0 -26 18 -40 40 -19 29 -34 40 -53 41 -14 0 -44 3
-66 6 -22 2 -209 6 -415 8 -206 2 -418 5 -470 8 -52 2 -121 -1 -152 -6z"/>
<path d="M13647 7544 c-1 -1 -54 -5 -117 -9 -63 -4 -131 -8 -150 -10 -19 -2
-71 -6 -115 -10 -44 -3 -91 -8 -105 -10 -14 -3 -47 -7 -75 -10 -27 -3 -61 -7
-75 -10 -14 -2 -45 -7 -70 -10 -147 -19 -343 -55 -435 -80 -120 -31 -193 -64
-244 -110 -39 -35 -113 -140 -138 -195 -10 -20 -70 -202 -109 -330 -4 -14 -8
-131 -9 -260 -1 -129 -4 -248 -8 -265 -22 -101 -29 -249 -15 -321 5 -27 10
-155 12 -284 l3 -235 32 -85 c17 -47 51 -116 76 -155 24 -38 55 -90 68 -115
41 -74 257 -293 325 -328 190 -99 475 -183 732 -217 171 -22 320 -30 600 -29
258 0 353 4 475 18 22 3 61 7 86 10 167 18 415 77 544 131 133 55 209 108 249
176 69 115 92 218 97 431 1 65 -15 92 -121 199 l-56 57 -129 7 c-231 14 -776
7 -880 -11 -16 -3 -35 -6 -42 -6 -14 -2 -49 -86 -59 -140 -4 -28 -19 -49 -58
-84 -121 -111 -310 -155 -487 -114 -84 19 -95 30 -103 97 -4 32 -9 76 -12 98
-9 68 -11 376 -3 455 5 41 11 101 14 133 4 32 8 68 11 80 2 12 11 62 19 112 9
49 31 151 50 225 19 74 42 169 50 210 26 128 73 254 109 296 69 81 127 98 369
109 62 2 153 -8 164 -18 1 -2 9 -48 18 -104 12 -76 14 -115 7 -154 -19 -103
-11 -147 41 -226 26 -40 53 -73 61 -73 7 0 25 -18 39 -39 l26 -39 173 3 c416
8 605 7 643 -3 50 -14 265 -12 365 2 l75 11 -1 240 c0 192 -4 254 -17 309 -22
87 -59 164 -96 196 -16 14 -39 45 -51 70 -34 67 -150 174 -234 215 -102 50
-380 128 -536 150 -75 11 -76 11 -155 20 -38 4 -78 9 -87 11 -55 10 -731 27
-741 18z"/>
<path d="M8758 7315 c-2 -2 -22 -7 -44 -10 -21 -3 -61 -10 -89 -15 -27 -6
-102 -12 -166 -15 -122 -6 -186 -22 -339 -83 -248 -99 -390 -258 -338 -379 22
-52 96 -148 166 -215 71 -68 94 -82 148 -91 16 -3 83 -17 149 -32 154 -35 151
-34 210 -41 116 -14 292 -5 415 21 132 28 607 176 714 222 180 80 226 139 182
239 -50 115 -199 281 -281 313 -86 34 -153 47 -283 56 -42 3 -101 8 -130 10
-29 2 -108 7 -175 11 -67 3 -125 8 -128 10 -3 2 -8 1 -11 -1z"/>
<path d="M8369 6156 c-2 -2 -32 -7 -66 -10 -89 -9 -93 -12 -88 -54 2 -21 6
-116 10 -212 4 -96 8 -209 10 -250 7 -144 15 -377 20 -585 3 -115 8 -288 10
-384 l5 -174 -258 5 -259 5 3 -31 c2 -17 5 -56 8 -86 2 -30 14 -77 25 -103 12
-27 21 -57 21 -67 0 -11 6 -23 13 -27 8 -4 30 -34 50 -65 20 -32 43 -58 51
-58 7 0 25 -18 40 -40 l26 -40 218 0 c119 -1 401 -3 626 -6 350 -4 421 -2 495
12 47 9 95 17 106 18 19 1 20 10 23 296 5 417 6 675 3 820 -2 69 0 150 3 180
13 115 17 159 21 290 7 178 13 276 20 325 6 36 2 46 -36 98 -24 31 -49 57 -56
57 -7 0 -24 18 -38 40 l-25 40 -153 1 c-83 1 -303 3 -488 5 -185 2 -338 2
-340 0z"/>
</g>
</svg>
